<?xml version="1.0" encoding="UTF-8"?>
<!DOCTYPE svg PUBLIC "-//W3C//DTD SVG 1.1//EN" "http://www.w3.org/Graphics/SVG/1.1/DTD/svg11.dtd">
<!-- Creator: CorelDRAW X7 -->
<svg xmlns="http://www.w3.org/2000/svg" xml:space="preserve" width="64px" height="64px" version="1.1" style="shape-rendering:geometricPrecision; text-rendering:geometricPrecision; image-rendering:optimizeQuality; fill-rule:evenodd; clip-rule:evenodd"
viewBox="0 0 662 662"
 xmlns:xlink="http://www.w3.org/1999/xlink">
 <defs>
  <style type="text/css">
   <![CDATA[
    .fil1 {fill:#26391E}
    .fil7 {fill:#26391E}
    .fil3 {fill:#4D2B1C}
    .fil4 {fill:#82594F}
    .fil6 {fill:#87A966}
    .fil5 {fill:#9ABD6B}
    .fil2 {fill:#C8E083}
    .fil0 {fill:#FF6600}
   ]]>
  </style>
 </defs>
 <g id="Layer_x0020_1">
  <metadata id="CorelCorpID_0Corel-Layer"/>
  <path class="fil0" d="M331 0c-183,0 -331,148 -331,331 0,182 148,330 331,330 182,0 330,-148 330,-330 0,-183 -148,-331 -330,-331z"/>
  <g id="_2660245768592">
   <path class="fil1" d="M312 133c-42,5 -73,28 -88,68 -13,35 2,57 -32,122 -12,23 -25,45 -34,71 -9,29 -13,59 -7,91 6,29 19,55 34,71 9,11 14,16 26,25 36,26 80,31 126,30 33,-2 58,-8 84,-21 9,-4 24,-14 30,-20 31,-29 49,-57 50,-107 0,-35 -7,-56 -19,-86 -7,-17 -25,-49 -35,-68 -13,-25 -21,-47 -28,-76 -7,-29 -14,-54 -31,-72 -17,-18 -42,-31 -76,-28z"/>
   <path class="fil2" d="M222 312c0,4 -15,28 -18,34 -3,5 -6,10 -9,16 -2,6 -7,13 -8,18 -5,17 -5,15 -10,35 -8,41 -4,76 15,110 5,10 12,17 20,24 19,19 51,29 78,32 6,1 14,1 21,2 6,-2 8,-4 13,2 36,2 88,-12 115,-34 2,-2 2,-2 3,-3 1,-1 0,0 1,-1l13 -13c5,-7 13,-21 16,-31 15,-52 0,-100 -24,-146 -17,-33 -31,-55 -44,-93 -4,-12 -6,-24 -9,-37 -3,-12 -6,-23 -12,-33 -1,-3 0,-1 -2,-4 -3,-4 -1,-2 -8,-9 -8,-10 -15,-14 -27,-18 -5,-2 -15,-5 -20,-1l-1 0c-6,4 -11,-5 -27,-1 -24,7 -42,22 -51,47 -5,17 -6,37 -9,55 -3,19 -5,22 -10,38 -1,2 -2,4 -3,6 -1,2 -1,4 -3,5z"/>
   <path class="fil3" d="M321 318c-24,1 -46,19 -60,35 -19,23 -34,47 -38,85 -1,16 1,33 7,47 4,11 10,21 18,30 29,33 83,42 126,20 11,-6 19,-12 27,-20 9,-9 19,-27 23,-39 9,-31 5,-62 -10,-89 -6,-11 -15,-26 -22,-33 -8,-9 -17,-18 -29,-25 -11,-8 -26,-12 -42,-11z"/>
   <path class="fil4" d="M331 329c-3,1 -10,10 -11,13 -16,26 -22,72 -3,96 6,8 17,17 32,16 33,-1 29,-42 19,-65 -7,-17 -17,-32 -27,-46 -2,-3 -7,-12 -10,-14z"/>
   <path class="fil5" d="M326 162c5,-4 15,-1 20,1 12,4 19,8 27,18 7,7 5,5 8,9 2,3 1,1 2,4 6,10 9,21 12,33 3,13 5,25 9,37 13,38 27,60 44,93 24,46 39,94 24,146 -3,10 -11,24 -16,31l-13 13c-1,1 0,0 -1,1 -1,1 -1,1 -3,3 -27,22 -79,36 -115,34 2,4 1,4 0,7 31,-1 55,-4 81,-15 25,-10 42,-22 55,-40 31,-39 29,-103 7,-153 -21,-49 -45,-72 -60,-131 -9,-35 -12,-77 -49,-95 -5,-3 -11,-5 -17,-7 -5,-1 -7,-1 -11,2 -4,2 -3,3 -4,9z"/>
   <path class="fil5" d="M311 583c-7,-1 -15,-1 -21,-2 -27,-3 -59,-13 -78,-32 -8,-7 -15,-14 -20,-24 -19,-34 -23,-69 -15,-110 5,-20 5,-18 10,-35l-3 1 0 -6c-3,4 -10,28 -12,35 -3,13 -6,27 -6,41 -2,51 23,99 67,123 18,10 53,20 77,18 -2,-4 -1,-6 1,-9z"/>
   <path class="fil5" d="M223 296c1,3 0,5 -2,7 1,2 0,1 1,1 0,0 1,0 1,0 -1,4 -1,5 -1,8 2,-1 2,-3 3,-5 1,-2 2,-4 3,-6 5,-16 7,-19 10,-38 3,-18 4,-38 9,-55 9,-25 27,-40 51,-47 16,-4 21,5 27,1 -12,0 -9,-5 -8,-7 -8,-5 -10,-6 -23,-2 -21,6 -40,23 -49,43 -12,26 -10,49 -16,76 -1,6 -6,20 -6,24z"/>
   <path class="fil6" d="M184 375l0 6 3 -1c1,-5 6,-12 8,-18 3,-6 6,-11 9,-16 3,-6 18,-30 18,-34 0,-3 0,-4 1,-8 0,0 -1,0 -1,0 -1,0 0,1 -1,-1 2,-2 3,-4 2,-7 -2,2 -7,17 -9,20 -3,7 -7,13 -10,20 -4,6 -7,12 -11,19 -2,5 -7,15 -9,20z"/>
   <path class="fil7" d="M507 156c-9,-30 -30,-53 -62,-69 -17,-9 -43,-10 -56,-10 2,-6 3,-12 4,-19 0,-3 -2,-6 -6,-7 -3,-1 -6,2 -7,5 -5,36 -25,54 -26,54 -7,13 -26,21 -39,31l14 4c14,-11 28,-14 41,-32 4,-6 10,-14 15,-25 30,27 84,107 97,202 1,1 2,2 3,2 0,0 0,0 1,0 1,0 2,0 2,-1 2,-3 39,-72 19,-135z"/>
  </g>
 </g>
</svg>

